HIERARCHY
ROOT SpineBase
{
  OFFSET 0.000000 0.000000 0.000000
  CHANNELS 6 Xposition Yposition Zposition Zrotation Xrotation Yrotation
  JOINT SpineMid
  {
    OFFSET 0.000000 32.685047 0.000000
    CHANNELS 3 Zrotation Xrotation Yrotation
    JOINT SpineShoulder
    {
      OFFSET 0.064801 24.176815 -0.826980
      CHANNELS 3 Zrotation Xrotation Yrotation
      JOINT Neck
      {
        OFFSET 0.038509 7.966042 -0.613505
        CHANNELS 3 Zrotation Xrotation Yrotation
        JOINT Head
        {
          OFFSET -1.065763 15.422606 -3.695573
          CHANNELS 3 Zrotation Xrotation Yrotation
          End Site
          {
            OFFSET 0 0 0
          }
        }
      }
      JOINT ShoulderLeft
      {
        OFFSET -15.643629 -3.541107 1.951666
        CHANNELS 3 Zrotation Xrotation Yrotation
        JOINT ElbowLeft
        {
          OFFSET 4.641405 -29.097940 -8.865388
          CHANNELS 3 Zrotation Xrotation Yrotation
          JOINT WristLeft
          {
            OFFSET -1.530772 -22.336351 -3.334487
            CHANNELS 3 Zrotation Xrotation Yrotation
            JOINT HandLeft
            {
              OFFSET -0.094566 -6.307068 0.782445
              CHANNELS 3 Zrotation Xrotation Yrotation
              JOINT HandTipLeft
              {
                OFFSET -0.964326 -7.693239 -0.656417
                CHANNELS 3 Zrotation Xrotation Yrotation
                End Site
                {
                  OFFSET 0 0 0
                }
              }
              JOINT ThumbLeft
              {
                OFFSET 4.180396 1.084905 -2.192630
                CHANNELS 3 Zrotation Xrotation Yrotation
                End Site
                {
                  OFFSET 0 0 0
                }
              }
            }
          }
        }
      }
      JOINT ShoulderRight
      {
        OFFSET 15.849946 -5.082165 -2.867955
        CHANNELS 3 Zrotation Xrotation Yrotation
        JOINT ElbowRight
        {
          OFFSET 3.792109 -28.449349 0.066266
          CHANNELS 3 Zrotation Xrotation Yrotation
          JOINT WristRight
          {
            OFFSET 0.057008 -21.578232 -7.637919
            CHANNELS 3 Zrotation Xrotation Yrotation
            JOINT HandRight
            {
              OFFSET -2.410583 -5.715238 -2.454819
              CHANNELS 3 Zrotation Xrotation Yrotation
              JOINT HandTipRight
              {
                OFFSET -1.331717 -6.616862 -2.348548
                CHANNELS 3 Zrotation Xrotation Yrotation
                End Site
                {
                  OFFSET 0 0 0
                }
              }
              JOINT ThumbRight
              {
                OFFSET -3.620479 -0.113259 -2.072314
                CHANNELS 3 Zrotation Xrotation Yrotation
                End Site
                {
                  OFFSET 0 0 0
                }
              }
            }
          }
        }
      }
    }
  }
  JOINT HipLeft
  {
    OFFSET -7.880781 0.559048 -3.140334
    CHANNELS 3 Zrotation Xrotation Yrotation
    JOINT KneeLeft
    {
      OFFSET -2.142516 -37.407889 0.722578
      CHANNELS 3 Zrotation Xrotation Yrotation
      JOINT AnkleLeft
      {
        OFFSET 2.103404 -34.431711 10.128189
        CHANNELS 3 Zrotation Xrotation Yrotation
        JOINT FootLeft
        {
          OFFSET -1.318928 -4.297114 -13.868984
          CHANNELS 3 Zrotation Xrotation Yrotation
          End Site
          {
            OFFSET 0 0 0
          }
        }
      }
    }
  }
  JOINT HipRight
  {
    OFFSET 8.014414 0.755663 -4.482163
    CHANNELS 3 Zrotation Xrotation Yrotation
    JOINT KneeRight
    {
      OFFSET 2.242771 -39.030931 -0.415507
      CHANNELS 3 Zrotation Xrotation Yrotation
      JOINT AnkleRight
      {
        OFFSET 0.527193 -34.092751 8.626793
        CHANNELS 3 Zrotation Xrotation Yrotation
        JOINT FootRight
        {
          OFFSET -1.508125 -4.273347 -13.862411
          CHANNELS 3 Zrotation Xrotation Yrotation
          End Site
          {
            OFFSET 0 0 0
          }
        }
      }
    }
  }
}
MOTION
Frames: 14
Frame Time: 0.033333
-5.918387 77.780020 340.238920 0.954688 -6.835848 4.602351 0.398446 -1.070472 -4.491740 0.144857 -0.259830 0.083822 2.698231 -8.813712 -0.161434 0.000000 0.000000 0.000000 -1.307791 3.085638 -0.971909 -0.839156 -4.960360 1.708144 -0.111403 7.753120 -0.798554 2.663636 -0.232132 0.184230 0.000000 0.000000 0.000000 0.000000 0.000000 0.000000 1.012680 1.668258 -1.122781 -2.430640 2.398624 0.903139 -0.066499 -2.775711 2.977654 1.082222 4.543159 -2.890388 0.000000 0.000000 0.000000 0.000000 0.000000 0.000000 -0.407380 6.889902 -4.520807 0.352268 -0.869424 0.053052 0.261997 -0.792742 -1.597777 0.000000 0.000000 0.000000 0.278807 5.551035 -4.677092 -0.788362 1.279241 0.090729 0.634143 -1.670186 -1.533851 0.000000 0.000000 0.000000
-5.879606 77.685713 340.161247 1.174616 -7.818943 3.367589 0.451040 -1.047562 -3.226599 0.132950 -0.279106 0.096010 2.034729 -9.793980 -0.386283 0.000000 0.000000 0.000000 -1.897503 2.944731 -1.002717 -0.237612 -5.873594 1.882272 -0.208219 7.306925 -0.855130 1.951083 0.782563 0.329347 0.000000 0.000000 0.000000 0.000000 0.000000 0.000000 0.872612 1.605365 -1.282598 -2.252199 3.478689 0.934352 3.251689 -5.499670 2.793036 -1.196029 9.457588 -3.343677 0.000000 0.000000 0.000000 0.000000 0.000000 0.000000 -0.721549 7.873352 -3.237659 0.505945 -1.016155 0.090973 0.733069 -0.896348 -3.706115 0.000000 0.000000 0.000000 -0.077921 6.329976 -3.411392 -0.728538 1.503084 0.103710 1.261384 -1.928345 -3.599547 0.000000 0.000000 0.000000
-5.814644 77.578972 340.083099 1.384315 -8.843421 1.853097 0.522104 -1.063332 -1.679038 0.131701 -0.307677 0.108898 1.005183 -9.716445 -0.655689 0.000000 0.000000 0.000000 -2.979171 2.505795 -0.887670 0.774464 -5.857998 1.901465 0.195585 4.741830 -0.885188 1.967337 4.061471 0.112754 0.000000 0.000000 0.000000 0.000000 0.000000 0.000000 0.462842 1.671405 -1.413906 -1.568495 4.496054 0.815380 5.774576 -7.494970 2.752493 -2.622302 13.695004 -3.997005 0.000000 0.000000 0.000000 0.000000 0.000000 0.000000 -1.245746 7.749064 -1.577237 0.688322 -0.018225 0.032585 1.473923 -1.091510 -6.508882 0.000000 0.000000 0.000000 -0.554415 7.106253 -1.844695 -0.782786 2.549827 0.091811 2.262451 -3.058136 -6.310001 0.000000 0.000000 0.000000
-5.734920 77.461625 340.001572 1.576556 -9.919343 0.202067 0.566602 -1.087739 0.008055 0.111703 -0.272265 0.118517 0.100702 -9.866546 -0.904348 0.000000 0.000000 0.000000 -3.609311 2.430527 -0.858884 1.349570 -5.561742 1.950769 -0.275443 0.942560 -0.842229 2.793644 8.448845 -0.213974 0.000000 0.000000 0.000000 0.000000 0.000000 0.000000 0.062614 1.674248 -1.539914 -0.620740 5.213472 0.582517 6.970633 -9.016727 3.266736 -1.332042 15.411941 -5.684586 0.000000 0.000000 0.000000 0.000000 0.000000 0.000000 -1.833675 8.391807 0.195716 0.887620 0.262437 0.009019 2.132783 -1.384329 -8.881782 0.000000 0.000000 0.000000 -1.124056 7.893848 -0.118840 -0.660754 3.178975 0.101327 3.004170 -3.825208 -8.633468 0.000000 0.000000 0.000000
-5.640785 77.338489 339.923809 1.728711 -11.063708 -1.746793 0.626822 -1.221458 1.994254 0.110975 -0.332400 0.128917 -0.745273 -8.991758 -1.094994 0.000000 0.000000 0.000000 -4.087623 1.653571 -1.044693 1.632817 -3.491013 2.163090 -1.584167 -4.011180 -0.836632 5.298299 11.503265 -0.696430 0.000000 0.000000 0.000000 0.000000 0.000000 0.000000 -0.318451 2.045922 -1.654361 0.556162 5.514948 0.206560 8.876428 -9.977592 3.369482 -1.936489 19.072866 -6.851542 0.000000 0.000000 0.000000 0.000000 0.000000 0.000000 -2.533090 8.955356 2.297730 1.079373 0.654856 -0.043069 2.916186 -1.831555 -11.471446 0.000000 0.000000 0.000000 -1.768555 8.717169 1.925171 -0.537257 3.854686 0.107320 3.816968 -4.788676 -11.171091 0.000000 0.000000 0.000000
-5.516517 77.220270 339.855063 1.848275 -12.211255 -4.084229 0.712228 -1.346100 4.367103 0.113579 -0.377418 0.137735 -1.597209 -8.176653 -1.264977 0.000000 0.000000 0.000000 -4.291204 0.651628 -1.380145 1.975997 0.214616 2.311097 -6.286641 -9.704337 -1.090315 10.900416 15.608399 -1.912706 0.000000 0.000000 0.000000 0.000000 0.000000 0.000000 -0.668275 2.190497 -1.785855 1.804911 5.829601 -0.215483 10.769483 -10.570786 3.360137 -2.405961 19.268173 -7.287500 0.000000 0.000000 0.000000 0.000000 0.000000 0.000000 -3.409774 9.405006 4.824412 1.311917 1.080007 -0.118536 3.687609 -2.345706 -13.848574 0.000000 0.000000 0.000000 -2.578786 9.564198 4.395901 -0.347267 4.503296 0.107239 4.555166 -5.883701 -13.499757 0.000000 0.000000 0.000000
-5.382558 77.094859 339.794947 1.979364 -13.394993 -6.771449 0.817912 -1.410221 7.092913 0.126320 -0.398529 0.146160 -2.739513 -7.107388 -1.429052 0.000000 0.000000 0.000000 -4.356765 1.309387 -1.474609 1.769622 0.737800 2.489371 -10.049411 -12.547506 -1.678465 16.113414 18.005669 -3.292504 0.000000 0.000000 0.000000 0.000000 0.000000 0.000000 -0.944344 2.227881 -1.930327 3.032420 5.804642 -0.682944 10.841109 -10.514755 3.882537 -2.319024 20.673332 -8.154339 0.000000 0.000000 0.000000 0.000000 0.000000 0.000000 -4.463837 9.719451 7.743180 1.616364 1.598835 -0.199887 4.283862 -2.930129 -15.681051 0.000000 0.000000 0.000000 -3.567123 10.462330 7.261792 -0.127277 5.079252 0.105046 5.104137 -7.053286 -15.281831 0.000000 0.000000 0.000000
-5.255179 76.985588 339.746278 2.165413 -14.547026 -9.521346 0.938150 -1.423812 9.890756 0.136140 -0.404686 0.157020 -4.341130 -6.432557 -1.630190 0.000000 0.000000 0.000000 -4.177224 0.920960 -1.893858 0.745067 1.727176 3.148453 -12.672633 -12.653269 -2.194961 20.167651 17.684137 -4.024522 0.000000 0.000000 0.000000 0.000000 0.000000 0.000000 -1.359853 1.876148 -2.088356 4.530372 5.864227 -1.277613 8.137615 -10.446219 5.777063 1.291793 21.520091 -11.011494 0.000000 0.000000 0.000000 0.000000 0.000000 0.000000 -5.619425 9.922583 10.753113 1.924855 2.082713 -0.282731 4.952881 -3.503099 -17.877408 0.000000 0.000000 0.000000 -4.733818 11.267647 10.239479 0.161692 5.656444 0.110710 5.676889 -8.261998 -17.426554 0.000000 0.000000 0.000000
-5.150144 76.879748 339.698564 2.325330 -15.502346 -12.211387 1.019330 -1.347967 12.622681 0.126057 -0.347647 0.164616 -5.753355 -6.129091 -1.796353 0.000000 0.000000 0.000000 -3.939443 0.394415 -2.294280 -0.680946 2.113502 3.964987 -14.061773 -11.399756 -2.534613 22.046472 15.554304 -3.665904 0.000000 0.000000 0.000000 0.000000 0.000000 0.000000 -1.908493 1.254219 -2.202445 6.077428 5.875104 -1.866476 5.510301 -9.726928 7.247422 3.809985 19.223671 -12.142158 0.000000 0.000000 0.000000 0.000000 0.000000 0.000000 -6.727090 9.902198 13.687489 2.246973 2.515553 -0.360102 5.561499 -4.016253 -19.999700 0.000000 0.000000 0.000000 -5.876193 11.841193 13.155084 0.470728 6.217472 0.126037 6.149674 -9.431665 -19.498197 0.000000 0.000000 0.000000
-5.051040 76.817675 339.674068 2.485896 -16.462513 -14.966129 1.092716 -1.420019 15.431463 0.121665 -0.419494 0.174085 -7.140525 -5.449418 -1.904802 0.000000 0.000000 0.000000 -3.780850 0.161536 -2.632085 -2.186967 2.338583 4.840740 -13.373564 -10.011877 -2.696824 23.062906 13.347745 -3.534594 0.000000 0.000000 0.000000 0.000000 0.000000 0.000000 -2.386006 0.557944 -2.364486 7.469760 5.695288 -2.399162 2.575565 -7.012585 7.897788 5.301892 15.470876 -11.744646 0.000000 0.000000 0.000000 0.000000 0.000000 0.000000 -7.839277 9.843698 16.688162 2.600532 2.929072 -0.420531 5.983140 -4.572185 -21.733961 0.000000 0.000000 0.000000 -7.137009 12.397874 16.171002 0.865806 6.714946 0.148819 6.423972 -10.637112 -21.187187 0.000000 0.000000 0.000000
-4.959552 76.802589 339.682131 2.637472 -17.280811 -17.477732 1.128670 -1.425152 17.995003 0.120071 -0.415179 0.179491 -8.336504 -5.450685 -2.030168 0.000000 0.000000 0.000000 -3.789379 -0.091455 -2.841501 -3.522158 2.259149 5.613997 -11.860026 -8.677581 -2.839664 23.141777 12.735273 -3.522019 0.000000 0.000000 0.000000 0.000000 0.000000 0.000000 -2.825849 -0.555242 -2.547723 8.666565 5.370984 -2.859020 -0.955004 -5.619391 9.990618 6.517713 13.341151 -11.972595 0.000000 0.000000 0.000000 0.000000 0.000000 0.000000 -8.863566 9.738127 19.419732 2.965431 3.245059 -0.458787 6.240694 -5.038138 -23.071620 0.000000 0.000000 0.000000 -8.346529 12.840589 18.939310 1.259787 7.097154 0.173736 6.550841 -11.681501 -22.485559 0.000000 0.000000 0.000000
-4.896962 76.841690 339.737691 2.748190 -18.016414 -19.631124 1.145093 -1.461169 20.196079 0.110623 -0.422040 0.183146 -9.323592 -5.425626 -2.126899 0.000000 0.000000 0.000000 -3.939683 0.109569 -2.860585 -4.518161 1.779618 6.136901 -9.967554 -7.905145 -3.042897 23.371864 13.977910 -4.115263 0.000000 0.000000 0.000000 0.000000 0.000000 0.000000 -3.132725 -1.628272 -2.737849 9.493551 4.796695 -3.148177 0.025831 -9.129004 13.217962 4.693493 15.820938 -13.088658 0.000000 0.000000 0.000000 0.000000 0.000000 0.000000 -9.736732 9.734850 21.757951 3.322251 3.428143 -0.464913 6.293546 -5.430796 -23.942316 0.000000 0.000000 0.000000 -9.426395 13.271591 21.330142 1.615647 7.356017 0.199834 6.533265 -12.568785 -23.318182 0.000000 0.000000 0.000000
-4.851116 76.900174 339.847169 2.850974 -18.689291 -21.347077 1.146665 -1.432012 21.953488 0.107481 -0.371330 0.184782 -10.253718 -5.249191 -2.184159 0.000000 0.000000 0.000000 -4.445734 0.698115 -2.599401 -5.843057 1.189949 6.550286 -3.346153 -9.773241 -3.609801 16.952751 17.858898 -3.716064 0.000000 0.000000 0.000000 0.000000 0.000000 0.000000 -3.463065 -2.751533 -2.912760 10.047843 4.347915 -3.304770 -3.932963 -8.480385 16.109432 6.956313 19.270754 -15.239897 0.000000 0.000000 0.000000 0.000000 0.000000 0.000000 -10.518303 9.868885 23.642317 3.608926 3.455621 -0.458384 6.882626 -3.790436 -26.043545 0.000000 0.000000 0.000000 -10.393751 13.677292 23.271185 1.961432 7.591873 0.229204 6.426539 -13.339734 -23.861180 0.000000 0.000000 0.000000
-4.821871 76.964067 340.003772 2.915253 -19.262464 -22.414976 1.075121 -1.340147 23.052669 0.087879 -0.247316 0.182721 -10.969386 -6.061415 -2.361706 0.000000 0.000000 0.000000 -4.457724 2.071650 -2.372550 -6.171756 -0.398298 6.386832 -5.526184 -9.606381 -3.880306 19.957295 17.399221 -4.171716 0.000000 0.000000 0.000000 0.000000 0.000000 0.000000 -3.700504 -3.976572 -3.086995 10.350952 4.800656 -3.401526 -12.013527 -4.504109 18.471447 13.239328 16.734359 -17.154624 0.000000 0.000000 0.000000 0.000000 0.000000 0.000000 -11.150336 10.210922 24.853163 3.798947 3.329359 -0.438214 6.563893 -4.413199 -25.384917 0.000000 0.000000 0.000000 -11.113735 14.097256 24.525124 2.209885 7.756600 0.250419 6.173586 -13.874691 -23.553984 0.000000 0.000000 0.000000
